<?xml version="1.0" encoding="utf-8"?>
<!-- Generator: Adobe Illustrator 27.7.0, SVG Export Plug-In . SVG Version: 6.00 Build 0)  -->
<svg version="1.1" id="Capa_1" xmlns="http://www.w3.org/2000/svg" xmlns:xlink="http://www.w3.org/1999/xlink" x="0px" y="0px"
	 viewBox="0 0 63.25 63.25" style="enable-background:new 0 0 63.25 63.25;" xml:space="preserve">
<style type="text/css">
	.st0{fill:#959595;}
</style>
<g>
	<g id="XMLID_505_">
		<g id="XMLID_511_">
			<path class="st0" d="M27.13,41.24c0.88-0.18,1.65-0.52,2.3-1.02c0.58-0.43,1.06-0.97,1.44-1.6c0.61-0.96,0.91-2.04,0.91-3.25
				c0-1.17-0.27-2.17-0.79-2.99c-0.53-0.82-1.32-1.42-2.36-1.8c0.68-0.35,1.2-0.74,1.56-1.16c0.63-0.76,0.94-1.76,0.94-3
				c0-1.21-0.31-2.25-0.94-3.11c-1.04-1.41-2.8-2.13-5.29-2.17h-9.86v20.4h9.19C25.28,41.52,26.24,41.42,27.13,41.24z M19.12,24.66
				h4.44c0.98,0,1.78,0.11,2.41,0.32c0.73,0.3,1.1,0.93,1.1,1.88c0,0.86-0.28,1.46-0.83,1.79c-0.55,0.34-1.27,0.5-2.16,0.5h-4.96
				V24.66z M19.12,37.97v-5.44h5.02c0.88,0.01,1.56,0.12,2.04,0.35c0.87,0.4,1.3,1.12,1.3,2.19c0,1.25-0.45,2.1-1.34,2.55
				c-0.49,0.24-1.18,0.36-2.06,0.36H19.12z"/>
		</g>
		<g id="XMLID_506_">
			<g id="XMLID_508_">
				<path class="st0" d="M35.24,40.17c1.53,1.24,3.31,1.86,5.31,1.86c2.43,0,4.32-0.73,5.67-2.2c0.87-0.92,1.36-1.83,1.46-2.73
					h-4.03c-0.23,0.44-0.51,0.79-0.81,1.04c-0.56,0.46-1.29,0.69-2.19,0.69c-0.85,0-1.57-0.19-2.17-0.57
					c-0.99-0.61-1.52-1.67-1.58-3.18h10.98c0.02-1.3-0.02-2.3-0.13-2.99c-0.18-1.18-0.58-2.22-1.2-3.12
					c-0.68-1.02-1.55-1.76-2.61-2.23c-1.05-0.47-2.23-0.71-3.55-0.71c-2.21,0-4.01,0.7-5.39,2.09c-1.39,1.39-2.08,3.4-2.08,6.01
					C32.94,36.92,33.7,38.93,35.24,40.17z M38.06,30.14c0.56-0.57,1.34-0.86,2.35-0.86c0.93,0,1.71,0.27,2.34,0.81
					c0.63,0.54,0.98,1.34,1.05,2.38h-6.79C37.15,31.5,37.5,30.72,38.06,30.14z"/>
			</g>
			<g id="XMLID_507_">
				<rect x="35.72" y="22.29" class="st0" width="8.86" height="2.06"/>
			</g>
		</g>
	</g>
	<path class="st0" d="M31.63,0C14.19,0,0,14.19,0,31.62c0,17.44,14.19,31.63,31.63,31.63c17.44,0,31.62-14.19,31.62-31.63
		C63.25,14.19,49.06,0,31.63,0z M31.63,59.19c-15.2,0-27.57-12.37-27.57-27.57c0-15.2,12.37-27.57,27.57-27.57
		c15.2,0,27.57,12.37,27.57,27.57C59.19,46.83,46.83,59.19,31.63,59.19z"/>
</g>
</svg>
