<?xml version="1.0" encoding="utf-8"?>
<!-- Generator: Adobe Illustrator 27.7.0, SVG Export Plug-In . SVG Version: 6.00 Build 0)  -->
<svg version="1.1" id="Capa_1" xmlns="http://www.w3.org/2000/svg" xmlns:xlink="http://www.w3.org/1999/xlink" x="0px" y="0px"
	 viewBox="0 0 63.06 63.06" style="enable-background:new 0 0 63.06 63.06;" xml:space="preserve">
<style type="text/css">
	.st0{fill:#FEFFFF;}
</style>
<g>
	<path class="st0" d="M49.1,17.8H14.89c-1.34,0-2.42,1.09-2.42,2.42v22.61c0,1.34,1.09,2.42,2.42,2.42H49.1
		c1.34,0,2.42-1.09,2.42-2.42V20.22C51.53,18.89,50.44,17.8,49.1,17.8z M48.13,19.63L33.57,31.35c-0.91,0.74-2.24,0.74-3.16,0
		L15.87,19.63H48.13z M14.29,42.16V20.71l12.08,9.73L14.29,42.16z M15.62,43.43L27.81,31.6l1.46,1.17C30.03,33.4,31,33.74,32,33.74
		c0.99,0,1.96-0.34,2.73-0.96l1.46-1.18l12.19,11.83H15.62z M49.7,42.17L37.62,30.45l12.08-9.73C49.7,20.72,49.7,42.17,49.7,42.17z"
		/>
</g>
</svg>
