<?xml version="1.0" encoding="utf-8"?>
<!-- Generator: Adobe Illustrator 27.7.0, SVG Export Plug-In . SVG Version: 6.00 Build 0)  -->
<svg version="1.1" id="Capa_1" xmlns="http://www.w3.org/2000/svg" xmlns:xlink="http://www.w3.org/1999/xlink" x="0px" y="0px"
	 viewBox="0 0 63.25 63.25" style="enable-background:new 0 0 63.25 63.25;" xml:space="preserve">
<style type="text/css">
	.st0{fill-rule:evenodd;clip-rule:evenodd;fill:#959595;}
	.st1{fill:#959595;}
</style>
<g>
	<g>
		<path class="st0" d="M29.64,37.54c-0.03,0.1-0.06,0.19-0.08,0.27c-1.3,5.1-1.45,6.24-2.79,8.61c-0.64,1.13-1.36,2.19-2.15,3.22
			c-0.09,0.12-0.17,0.26-0.35,0.23c-0.2-0.04-0.21-0.22-0.23-0.38c-0.21-1.55-0.33-3.11-0.28-4.67c0.07-2.04,0.32-2.74,2.95-13.79
			c0.04-0.17,0-0.31-0.06-0.46c-0.63-1.7-0.75-3.42-0.2-5.17c1.19-3.77,5.46-4.06,6.21-0.95c0.46,1.92-0.76,4.44-1.69,8.16
			c-0.77,3.07,2.84,5.25,5.93,3.01c2.85-2.07,3.96-7.02,3.75-10.53c-0.41-7-8.09-8.52-12.96-6.26c-5.58,2.58-6.85,9.5-4.33,12.67
			c0.32,0.4,0.57,0.65,0.46,1.06c-0.16,0.63-0.31,1.27-0.48,1.9c-0.13,0.47-0.52,0.64-1,0.45c-0.93-0.38-1.7-0.97-2.33-1.75
			c-2.14-2.65-2.75-7.9,0.08-12.34c3.14-4.92,8.97-6.91,14.3-6.31c6.36,0.72,10.38,5.07,11.14,10c0.34,2.25,0.1,7.79-3.06,11.7
			c-3.63,4.5-9.51,4.8-12.22,2.04C30.01,38.04,29.84,37.79,29.64,37.54z"/>
	</g>
	<path class="st1" d="M31.62,0C14.19,0,0,14.19,0,31.62c0,17.44,14.19,31.63,31.62,31.63c17.44,0,31.62-14.19,31.62-31.63
		C63.25,14.19,49.06,0,31.62,0z M31.62,59.19c-15.2,0-27.57-12.37-27.57-27.57c0-15.2,12.37-27.57,27.57-27.57
		c15.2,0,27.57,12.37,27.57,27.57C59.19,46.83,46.83,59.19,31.62,59.19z"/>
</g>
<g>
	<g id="XMLID_505_">
		<g id="XMLID_511_">
			<path class="st1" d="M118.78,196.31c0.88-0.18,1.65-0.52,2.3-1.02c0.58-0.43,1.06-0.97,1.44-1.6c0.61-0.96,0.91-2.04,0.91-3.25
				c0-1.17-0.27-2.17-0.79-2.99c-0.53-0.82-1.32-1.42-2.36-1.8c0.68-0.35,1.2-0.74,1.56-1.16c0.63-0.76,0.94-1.76,0.94-3
				c0-1.21-0.31-2.25-0.94-3.11c-1.04-1.41-2.8-2.13-5.29-2.17h-9.86v20.4h9.19C116.93,196.59,117.89,196.5,118.78,196.31z
				 M110.77,179.74h4.44c0.98,0,1.78,0.11,2.41,0.32c0.73,0.3,1.1,0.93,1.1,1.88c0,0.86-0.28,1.46-0.83,1.79
				c-0.55,0.34-1.27,0.5-2.16,0.5h-4.96V179.74z M110.77,193.05v-5.44h5.02c0.88,0.01,1.56,0.12,2.04,0.35
				c0.87,0.4,1.3,1.12,1.3,2.19c0,1.25-0.45,2.1-1.34,2.55c-0.49,0.24-1.18,0.36-2.06,0.36H110.77z"/>
		</g>
		<g id="XMLID_506_">
			<g id="XMLID_508_">
				<path class="st1" d="M126.89,195.25c1.53,1.24,3.31,1.86,5.31,1.86c2.43,0,4.32-0.73,5.67-2.2c0.87-0.92,1.36-1.83,1.46-2.73
					h-4.03c-0.23,0.44-0.51,0.79-0.81,1.04c-0.56,0.46-1.29,0.69-2.19,0.69c-0.85,0-1.57-0.19-2.17-0.57
					c-0.99-0.61-1.52-1.67-1.58-3.18h10.98c0.02-1.3-0.02-2.3-0.13-2.99c-0.18-1.18-0.58-2.22-1.2-3.12
					c-0.68-1.02-1.55-1.76-2.61-2.23c-1.05-0.47-2.23-0.71-3.55-0.71c-2.21,0-4.01,0.7-5.39,2.09c-1.39,1.39-2.08,3.4-2.08,6.01
					C124.59,192,125.35,194.01,126.89,195.25z M129.7,185.22c0.56-0.57,1.34-0.86,2.35-0.86c0.93,0,1.71,0.27,2.34,0.81
					c0.63,0.54,0.98,1.34,1.05,2.38h-6.79C128.8,186.57,129.15,185.79,129.7,185.22z"/>
			</g>
			<g id="XMLID_507_">
				<rect x="127.37" y="177.37" class="st1" width="8.86" height="2.06"/>
			</g>
		</g>
	</g>
	<path class="st1" d="M123.27,155.07c-17.44,0-31.63,14.19-31.63,31.62c0,17.44,14.19,31.63,31.63,31.63
		c17.44,0,31.62-14.19,31.62-31.63C154.9,169.26,140.71,155.07,123.27,155.07z M123.27,214.27c-15.2,0-27.57-12.37-27.57-27.57
		c0-15.2,12.37-27.57,27.57-27.57c15.2,0,27.57,12.37,27.57,27.57C150.84,201.9,138.48,214.27,123.27,214.27z"/>
</g>
</svg>
