<?xml version="1.0" encoding="utf-8"?>
<!-- Generator: Adobe Illustrator 27.7.0, SVG Export Plug-In . SVG Version: 6.00 Build 0)  -->
<svg version="1.1" id="Capa_1" xmlns="http://www.w3.org/2000/svg" xmlns:xlink="http://www.w3.org/1999/xlink" x="0px" y="0px"
	 viewBox="0 0 63.06 63.06" style="enable-background:new 0 0 63.06 63.06;" xml:space="preserve">
<style type="text/css">
	.st0{fill:#FEFFFF;}
</style>
<g>
	<g>
		<g>
			<g>
				<g>
					<path class="st0" d="M13.09,50.14l2.98-10.03c-1.56-2.77-2.39-5.89-2.39-9.09c0-2.5,0.49-4.92,1.45-7.2
						c0.93-2.2,2.26-4.18,3.96-5.88s3.67-3.03,5.88-3.96c2.28-0.96,4.7-1.45,7.2-1.45s4.92,0.49,7.2,1.45
						c2.2,0.93,4.18,2.26,5.88,3.96s3.03,3.67,3.96,5.88c0.96,2.28,1.45,4.7,1.45,7.2s-0.49,4.92-1.45,7.2
						c-0.93,2.2-2.26,4.18-3.96,5.88s-3.67,3.03-5.88,3.96c-2.28,0.96-4.7,1.45-7.2,1.45c-3.17,0-6.27-0.81-9.02-2.35L13.09,50.14z
						 M23.56,43.94l0.56,0.34c2.42,1.47,5.2,2.25,8.05,2.25c8.55,0,15.51-6.96,15.51-15.51s-6.96-15.51-15.51-15.51
						s-15.51,6.96-15.51,15.51c0,2.87,0.79,5.68,2.29,8.11l0.35,0.57l-1.79,6.03L23.56,43.94z"/>
				</g>
			</g>
		</g>
		<g>
			<g>
				<g>
					<path class="st0" d="M25.36,22.49c-0.28,0.01-0.56,0.11-0.78,0.29c-0.84,0.66-2.67,2.56-1.66,5.97
						c1.29,4.35,6.68,8.47,6.68,8.47s6.66,4.93,10.51,1.95c0.79-0.61,1.33-1.15,1.51-2.46c0.05-0.37,0.06-0.77-0.03-1.16l-4.19-2.06
						c0,0-0.59-0.26-0.92,0.16c-0.32,0.42-1.59,1.99-1.59,1.99s-0.21,0.47-1.15-0.01c-0.94-0.48-3.48-1.19-6.25-5.59
						c0,0-0.23-0.4,0.15-0.76c0.38-0.35,1.37-1.45,1.36-2.1s-1.25-2.81-1.57-3.87C27.15,22.35,26.73,22.43,25.36,22.49z"/>
				</g>
			</g>
		</g>
	</g>
</g>
</svg>
